<svg xmlns="http://www.w3.org/2000/svg" style="display: none;"><symbol id="down-arrow" viewBox="0 0 512.011 512.011"><title>down-arrow</title><path d="M505.755,123.592c-8.341-8.341-21.824-8.341-30.165,0L256.005,343.176L36.421,123.592c-8.341-8.341-21.824-8.341-30.165,0 s-8.341,21.824,0,30.165l234.667,234.667c4.16,4.16,9.621,6.251,15.083,6.251c5.462,0,10.923-2.091,15.083-6.251l234.667-234.667 C514.096,145.416,514.096,131.933,505.755,123.592z"/></symbol><symbol id="cancel" viewBox="0 0 512 512"><title>cancel</title><path d="M257,0C116.39,0,0,114.39,0,255s116.39,257,257,257s255-116.39,255-257S397.61,0,257,0z M383.22,338.79 c11.7,11.7,11.7,30.73,0,42.44c-11.61,11.6-30.64,11.79-42.44,0L257,297.42l-85.79,83.82c-11.7,11.7-30.73,11.7-42.44,0 c-11.7-11.7-11.7-30.73,0-42.44l83.8-83.8l-83.8-83.8c-11.7-11.71-11.7-30.74,0-42.44c11.71-11.7,30.74-11.7,42.44,0L257,212.58 l83.78-83.82c11.68-11.68,30.71-11.72,42.44,0c11.7,11.7,11.7,30.73,0,42.44l-83.8,83.8L383.22,338.79z"/></symbol><symbol id="instagram" viewBox="0 0 512 512"><title>instagram</title><path d="m301 256c0 24.851562-20.148438 45-45 45s-45-20.148438-45-45 20.148438-45 45-45 45 20.148438 45 45zm0 0"/><path d="m332 120h-152c-33.085938 0-60 26.914062-60 60v152c0 33.085938 26.914062 60 60 60h152c33.085938 0 60-26.914062 60-60v-152c0-33.085938-26.914062-60-60-60zm-76 211c-41.355469 0-75-33.644531-75-75s33.644531-75 75-75 75 33.644531 75 75-33.644531 75-75 75zm86-146c-8.285156 0-15-6.714844-15-15s6.714844-15 15-15 15 6.714844 15 15-6.714844 15-15 15zm0 0"/><path d="m377 0h-242c-74.4375 0-135 60.5625-135 135v242c0 74.4375 60.5625 135 135 135h242c74.4375 0 135-60.5625 135-135v-242c0-74.4375-60.5625-135-135-135zm45 332c0 49.625-40.375 90-90 90h-152c-49.625 0-90-40.375-90-90v-152c0-49.625 40.375-90 90-90h152c49.625 0 90 40.375 90 90zm0 0"/></symbol><symbol id="linkedin-logo" viewBox="0 0 510 510"><title>linkedin-logo</title><path d="M459,0H51C22.95,0,0,22.95,0,51v408c0,28.05,22.95,51,51,51h408c28.05,0,51-22.95,51-51V51C510,22.95,487.05,0,459,0z M153,433.5H76.5V204H153V433.5z M114.75,160.65c-25.5,0-45.9-20.4-45.9-45.9s20.4-45.9,45.9-45.9s45.9,20.4,45.9,45.9 S140.25,160.65,114.75,160.65z M433.5,433.5H357V298.35c0-20.399-17.85-38.25-38.25-38.25s-38.25,17.851-38.25,38.25V433.5H204 V204h76.5v30.6c12.75-20.4,40.8-35.7,63.75-35.7c48.45,0,89.25,40.8,89.25,89.25V433.5z"/></symbol><symbol id="google-plus-logo" viewBox="0 0 96.828 96.827"><title>google-plus-logo</title><path d="M62.617,0H39.525c-10.29,0-17.413,2.256-23.824,7.552c-5.042,4.35-8.051,10.672-8.051,16.912 c0,9.614,7.33,19.831,20.913,19.831c1.306,0,2.752-0.134,4.028-0.253l-0.188,0.457c-0.546,1.308-1.063,2.542-1.063,4.468 c0,3.75,1.809,6.063,3.558,8.298l0.22,0.283l-0.391,0.027c-5.609,0.384-16.049,1.1-23.675,5.787 c-9.007,5.355-9.707,13.145-9.707,15.404c0,8.988,8.376,18.06,27.09,18.06c21.76,0,33.146-12.005,33.146-23.863 c0.002-8.771-5.141-13.101-10.6-17.698l-4.605-3.582c-1.423-1.179-3.195-2.646-3.195-5.364c0-2.672,1.772-4.436,3.336-5.992 l0.163-0.165c4.973-3.917,10.609-8.358,10.609-17.964c0-9.658-6.035-14.649-8.937-17.048h7.663c0.094,0,0.188-0.026,0.266-0.077 l6.601-4.15c0.188-0.119,0.276-0.348,0.214-0.562C63.037,0.147,62.839,0,62.617,0z M34.614,91.535 c-13.264,0-22.176-6.195-22.176-15.416c0-6.021,3.645-10.396,10.824-12.997c5.749-1.935,13.17-2.031,13.244-2.031 c1.257,0,1.889,0,2.893,0.126c9.281,6.605,13.743,10.073,13.743,16.678C53.141,86.309,46.041,91.535,34.614,91.535z M34.489,40.756c-11.132,0-15.752-14.633-15.752-22.468c0-3.984,0.906-7.042,2.77-9.351c2.023-2.531,5.487-4.166,8.825-4.166 c10.221,0,15.873,13.738,15.873,23.233c0,1.498,0,6.055-3.148,9.22C40.94,39.337,37.497,40.756,34.489,40.756z"/><path d="M94.982,45.223H82.814V33.098c0-0.276-0.225-0.5-0.5-0.5H77.08c-0.276,0-0.5,0.224-0.5,0.5v12.125H64.473 c-0.276,0-0.5,0.224-0.5,0.5v5.304c0,0.275,0.224,0.5,0.5,0.5H76.58V63.73c0,0.275,0.224,0.5,0.5,0.5h5.234 c0.275,0,0.5-0.225,0.5-0.5V51.525h12.168c0.276,0,0.5-0.223,0.5-0.5v-5.302C95.482,45.446,95.259,45.223,94.982,45.223z"/></symbol><symbol id="facebook" viewBox="0 0 512 512"><title>facebook</title><path d="m437 0h-362c-41.351562 0-75 33.648438-75 75v362c0 41.351562 33.648438 75 75 75h151v-181h-60v-90h60v-61c0-49.628906 40.371094-90 90-90h91v90h-91v61h91l-15 90h-76v181h121c41.351562 0 75-33.648438 75-75v-362c0-41.351562-33.648438-75-75-75zm0 0"/></symbol><symbol id="building" viewBox="0 0 512 512"><title>building</title><path d="m281.941 166.464h46.067c5.523 0 10-4.477 10-10v-46.144c0-5.523-4.477-10-10-10h-46.067c-5.523 0-10 4.477-10 10v46.144c0 5.523 4.477 10 10 10zm10-46.143h26.067v26.144h-26.067z"/><path d="m191.212 166.464h46.067c5.523 0 10-4.477 10-10v-46.144c0-5.523-4.477-10-10-10h-46.067c-5.523 0-10 4.477-10 10v46.144c0 5.523 4.477 10 10 10zm10-46.143h26.067v26.144h-26.067z"/><path d="m281.941 268.043h46.067c5.523 0 10-4.477 10-10v-46.143c0-5.523-4.477-10-10-10h-46.067c-5.523 0-10 4.477-10 10v46.143c0 5.522 4.477 10 10 10zm10-46.144h26.067v26.143h-26.067z"/><path d="m191.212 268.043h46.067c5.523 0 10-4.477 10-10v-46.143c0-5.523-4.477-10-10-10h-46.067c-5.523 0-10 4.477-10 10v46.143c0 5.522 4.477 10 10 10zm10-46.144h26.067v26.143h-26.067z"/><path d="m281.941 369.621h46.067c5.523 0 10-4.477 10-10v-46.144c0-5.523-4.477-10-10-10h-46.067c-5.523 0-10 4.477-10 10v46.144c0 5.523 4.477 10 10 10zm10-46.143h26.067v26.144h-26.067z"/><path d="m237.279 369.621c5.523 0 10-4.477 10-10v-46.144c0-5.523-4.477-10-10-10h-46.067c-5.523 0-10 4.477-10 10v46.144c0 5.523 4.477 10 10 10zm-36.067-46.143h26.067v26.144h-26.067z"/><path d="m463.95 492h-9.298v-302.052c0-5.523-4.477-10-10-10h-65.152v-123.991c0-5.523-4.477-10-10-10h-21.306v-35.957c0-5.523-4.477-10-10-10h-157.168c-5.523 0-10 4.477-10 10v35.957h-21.305c-5.523 0-10 4.477-10 10v192.461h-54.868c-5.523 0-10 4.477-10 10v233.582h-26.803c-5.523 0-10 4.477-10 10s4.477 10 10 10h415.9c5.523 0 10-4.477 10-10s-4.477-10-10-10zm-272.924-472h137.167v25.957h-137.167zm-96.173 248.418h44.868v223.582h-44.868zm64.868-202.461h199.779v426.043h-49.78v-65.978c0-5.523-4.477-10-10-10h-80.22c-5.523 0-10 4.477-10 10v65.978h-49.779zm69.78 426.043v-55.978h60.22v55.978zm149.999 0v-292.052h55.152v292.052z"/></symbol><symbol id="diagram" viewBox="0 0 480.006 480.006"><title>diagram</title><g> <g> <rect x="40.003" y="48.006" width="104" height="16"/> </g> </g><g> <g> <rect x="40.003" y="80.006" width="104" height="16"/> </g> </g><g> <g> <rect x="40.003" y="112.006" width="72" height="16"/> </g> </g><g> <g> <rect x="40.003" y="144.006" width="72" height="16"/> </g> </g><g> <g> <rect x="0.003" y="464.006" width="480" height="16"/> </g> </g><g> <g> <path d="M463.163,68.43l-32-64c-1.973-3.954-6.776-5.56-10.73-3.587c-0.002,0.001-0.004,0.002-0.006,0.003l-64,32 c-3.954,1.975-5.559,6.782-3.584,10.736s6.782,5.559,10.736,3.584l46.352-23.16l-12.648,36.112 C341.69,218.446,198.501,329.522,31.323,344.006l1.36,16C206.16,344.978,354.737,229.701,412.395,65.398l12.912-36.896 l23.536,47.08c1.975,3.954,6.782,5.559,10.736,3.584C463.534,77.191,465.138,72.385,463.163,68.43z"/> </g> </g><g> <g> <path d="M96.003,384.006h-56c-4.418,0-8,3.582-8,8v48c0,4.418,3.582,8,8,8h56c4.418,0,8-3.582,8-8v-48 C104.003,387.588,100.421,384.006,96.003,384.006z M88.003,432.006h-40v-32h40V432.006z"/> </g> </g><g> <g> <path d="M184.003,360.006h-56c-4.418,0-8,3.582-8,8v72c0,4.418,3.582,8,8,8h56c4.418,0,8-3.582,8-8v-72 C192.003,363.588,188.421,360.006,184.003,360.006z M176.003,432.006h-40v-56h40V432.006z"/> </g> </g><g> <g> <path d="M272.003,320.006h-56c-4.418,0-8,3.582-8,8v112c0,4.418,3.582,8,8,8h56c4.418,0,8-3.582,8-8v-112 C280.003,323.588,276.421,320.006,272.003,320.006z M264.003,432.006h-40v-96h40V432.006z"/> </g> </g><g> <g> <path d="M360.003,264.006h-56c-4.418,0-8,3.582-8,8v168c0,4.418,3.582,8,8,8h56c4.418,0,8-3.582,8-8v-168 C368.003,267.588,364.421,264.006,360.003,264.006z M352.003,432.006h-40v-152h40V432.006z"/> </g> </g><g> <g> <path d="M448.003,152.006h-56c-4.418,0-8,3.582-8,8v280c0,4.418,3.582,8,8,8h56c4.418,0,8-3.582,8-8v-280 C456.003,155.588,452.421,152.006,448.003,152.006z M440.003,432.006h-40v-264h40V432.006z"/> </g> </g></symbol><symbol id="credential" viewBox="0 0 191.582 191.582"><title>credential</title><path d="M172.907,174.984H18.674C8.377,174.984,0,166.607,0,156.311V76.62c0-10.297,8.377-18.674,18.674-18.674h25.363V42.182 c0-1.657,1.343-3,3-3h26.001c0.134-12.476,10.324-22.584,22.832-22.584s22.698,10.108,22.832,22.584h26.001c1.657,0,3,1.343,3,3 v15.765h25.204c10.297,0,18.674,8.377,18.674,18.674v79.69C191.582,166.607,183.204,174.984,172.907,174.984z M18.674,63.946 C11.686,63.946,6,69.632,6,76.62v79.69c0,6.988,5.686,12.674,12.674,12.674h154.233c6.989,0,12.674-5.686,12.674-12.674V76.62 c0-6.988-5.686-12.674-12.674-12.674h-25.204v9.547c0,1.657-1.343,3-3,3H46.878c-1.657,0-3-1.343-3-3v-9.547H18.674z M50.037,70.493 h91.667V45.182H115.49c-0.868,0-1.693-0.376-2.263-1.03c-0.57-0.655-0.828-1.524-0.708-2.383c0.125-0.903,0.184-1.646,0.184-2.337 c0-9.282-7.551-16.833-16.833-16.833c-9.282,0-16.833,7.551-16.833,16.833c0,0.69,0.059,1.434,0.184,2.339 c0.119,0.859-0.14,1.728-0.709,2.382s-1.395,1.03-2.262,1.03H50.037V70.493z M152.3,149.008h-45.193c-1.657,0-3-1.343-3-3 s1.343-3,3-3H152.3c1.657,0,3,1.343,3,3S153.957,149.008,152.3,149.008z M77.556,149.008H28.868c-1.657,0-3-1.343-3-3v-16.905 c0-7.674,6.243-13.917,13.917-13.917h4.438c-2.319-2.895-3.747-6.825-3.747-11.147c0-8.875,6.017-16.095,13.414-16.095 c7.396,0,13.413,7.22,13.413,16.095c0,4.323-1.428,8.253-3.747,11.147h3.084c7.673,0,13.917,6.243,13.917,13.917v16.905 C80.556,147.665,79.212,149.008,77.556,149.008z M31.868,143.008h42.688v-13.905c0-4.365-3.551-7.917-7.917-7.917H39.785 c-4.365,0-7.917,3.552-7.917,7.917V143.008z M53.889,93.944c-4.019,0-7.414,4.623-7.414,10.095s3.395,10.094,7.414,10.094 c4.018,0,7.413-4.623,7.413-10.094S57.907,93.944,53.889,93.944z M141.95,138.598h-34.844c-1.657,0-3-1.343-3-3s1.343-3,3-3h34.844 c1.657,0,3,1.343,3,3S143.607,138.598,141.95,138.598z M164.955,110.342h-57.849c-1.657,0-3-1.343-3-3s1.343-3,3-3h57.849 c1.657,0,3,1.343,3,3S166.612,110.342,164.955,110.342z M151.703,100.335h-44.597c-1.657,0-3-1.343-3-3s1.343-3,3-3h44.597 c1.657,0,3,1.343,3,3S153.36,100.335,151.703,100.335z"/></symbol><symbol id="google-plus-social-logotype" viewBox="0 0 94 94"><title>google-plus-social-logotype</title><path d="M89,0H5C2.239,0,0,2.239,0,5v84c0,2.761,2.239,5,5,5h84c2.762,0,5-2.239,5-5V5C94,2.239,91.762,0,89,0z M31.088,85.553 c-14.553,0-21.571-6.935-21.571-14.381c0-3.617,1.803-8.742,7.724-12.264c6.219-3.822,14.652-4.322,19.17-4.633 C35,52.465,33.4,50.557,33.4,47.441c0-1.708,0.502-2.713,0.999-3.922c-1.105,0.103-2.204,0.202-3.208,0.202 c-10.634,0-16.654-7.95-16.654-15.792c0-4.62,2.104-9.752,6.418-13.473c5.724-4.726,13.541-6.008,18.966-6.008h19.771l-6.525,4.099 h-6.217c2.307,1.909,7.117,5.931,7.117,13.578c0,7.436-4.209,10.964-8.421,14.28c-1.306,1.304-2.813,2.712-2.813,4.929 c0,2.207,1.508,3.413,2.608,4.325l3.617,2.809c4.414,3.72,8.428,7.138,8.428,14.083C57.482,76.005,48.346,85.553,31.088,85.553z M84.482,45.77H74.395v10.117H69.43V45.77H59.391v-5.02H69.43V30.695h4.965V40.75h10.088V45.77z"/><path d="M45.24,30.749c0-7.243-4.317-18.503-12.64-18.503c-2.616,0-5.42,1.307-7.029,3.32c-1.707,2.114-2.204,4.821-2.204,7.443 c0,6.734,3.911,17.894,12.544,17.894c2.507,0,5.207-1.2,6.821-2.811C45.04,35.771,45.24,32.56,45.24,30.749z"/><path d="M39.82,57.195c-0.8-0.102-1.302-0.102-2.305-0.102c-0.904,0-6.324,0.197-10.537,1.615 c-2.208,0.799-8.627,3.214-8.627,10.354c0,7.141,6.922,12.276,17.658,12.276c9.635,0,14.755-4.637,14.755-10.862 C50.764,65.334,47.451,62.627,39.82,57.195z"/></symbol><symbol id="right-arrow" viewBox="0 0 512 512"><title>right-arrow</title><path d="M506.134,241.843c-0.006-0.006-0.011-0.013-0.018-0.019l-104.504-104c-7.829-7.791-20.492-7.762-28.285,0.068 c-7.792,7.829-7.762,20.492,0.067,28.284L443.558,236H20c-11.046,0-20,8.954-20,20c0,11.046,8.954,20,20,20h423.557 l-70.162,69.824c-7.829,7.792-7.859,20.455-0.067,28.284c7.793,7.831,20.457,7.858,28.285,0.068l104.504-104 c0.006-0.006,0.011-0.013,0.018-0.019C513.968,262.339,513.943,249.635,506.134,241.843z"/></symbol><symbol id="down-arrow-1" viewBox="0 0 512 512"><title>down-arrow-1</title><path d="M374.108,373.328c-7.829-7.792-20.492-7.762-28.284,0.067L276,443.557V20c0-11.046-8.954-20-20-20 c-11.046,0-20,8.954-20,20v423.558l-69.824-70.164c-7.792-7.829-20.455-7.859-28.284-0.067c-7.83,7.793-7.859,20.456-0.068,28.285 l104,104.504c0.006,0.007,0.013,0.012,0.019,0.018c7.792,7.809,20.496,7.834,28.314,0.001c0.006-0.007,0.013-0.012,0.019-0.018 l104-104.504C381.966,393.785,381.939,381.121,374.108,373.328z"/></symbol></svg>